<svg style="position: absolute; width: 0; height: 0;" width="0" height="0" version="1.1" xmlns="http://www.w3.org/2000/svg" xmlns:xlink="http://www.w3.org/1999/xlink">
<defs>
<symbol id="icon-left-right" viewBox="0 0 32 32">
<title>left-right</title>
<path  class="path1 fill-color1" d="M14.341 23.684h-8.197c-0.338 0-0.613-0.276-0.613-0.614s0.274-0.613 0.613-0.613h8.197c0.338 0 0.613 0.276 0.613 0.613 0 0.339-0.275 0.614-0.613 0.614z"></path>
<path  class="path2 fill-color1" d="M14.341 19.68h-8.197c-0.338 0-0.613-0.276-0.613-0.614s0.274-0.614 0.613-0.614h8.197c0.338 0 0.613 0.276 0.613 0.614s-0.275 0.614-0.613 0.614z"></path>
<path  class="path3 fill-color1" d="M25.118 13.547h-8.197c-0.338 0-0.613-0.275-0.613-0.614s0.274-0.613 0.613-0.613h8.197c0.338 0 0.613 0.275 0.613 0.613 0 0.339-0.275 0.614-0.613 0.614z"></path>
<path  class="path4 fill-color1" d="M25.118 9.544h-8.197c-0.338 0-0.613-0.275-0.613-0.614s0.274-0.614 0.613-0.614h8.197c0.338 0 0.613 0.276 0.613 0.614s-0.275 0.614-0.613 0.614z"></path>
<path  class="path5 fill-color1" d="M24.848 25.898h-6.916c-0.894 0-1.621-0.727-1.621-1.622v-6.416c0-0.894 0.727-1.622 1.621-1.622h6.916c0.894 0 1.622 0.727 1.622 1.622v6.416c0 0.894-0.727 1.622-1.622 1.622zM17.932 17.489c-0.204 0-0.371 0.167-0.371 0.372v6.416c0 0.205 0.166 0.372 0.371 0.372h6.916c0.204 0 0.372-0.167 0.372-0.372v-6.416c0-0.205-0.167-0.372-0.372-0.372h-6.916z"></path>
<path  class="path6 fill-color1" d="M14.071 15.761h-6.916c-0.894 0-1.621-0.727-1.621-1.621v-6.416c0-0.894 0.727-1.622 1.621-1.622h6.916c0.894 0 1.621 0.728 1.621 1.622v6.416c0 0.895-0.728 1.622-1.621 1.622zM7.155 7.353c-0.205 0-0.371 0.167-0.371 0.372v6.415c0 0.205 0.167 0.371 0.371 0.371h6.916c0.205 0 0.371-0.167 0.371-0.371v-6.415c0-0.205-0.167-0.372-0.371-0.372h-6.916z"></path>
</symbol>
<symbol id="icon-news" viewBox="0 0 32 32">
<title>news</title>
<path  class="path1 fill-color2" d="M26.586 13.631h-10.343c-0.361 0-0.654-0.294-0.654-0.655s0.293-0.654 0.654-0.654h10.344c0.361 0 0.654 0.294 0.654 0.654-0 0.362-0.293 0.655-0.654 0.655z"></path>
<path  class="path2 fill-color2" d="M26.586 9.36h-10.343c-0.361 0-0.654-0.294-0.654-0.655s0.293-0.655 0.654-0.655h10.344c0.361 0 0.654 0.294 0.654 0.655s-0.293 0.655-0.654 0.655z"></path>
<path  class="path3 fill-color2" d="M24.405 20.125h-8.162c-0.361 0-0.654-0.293-0.654-0.654s0.293-0.654 0.654-0.654h8.162c0.361 0 0.654 0.293 0.654 0.654s-0.293 0.654-0.654 0.654z"></path>
<path  class="path4 fill-color2" d="M26.586 24.487h-10.343c-0.361 0-0.654-0.292-0.654-0.654s0.293-0.654 0.654-0.654h10.344c0.361 0 0.654 0.293 0.654 0.654s-0.293 0.654-0.654 0.654z"></path>
<path  class="path5 fill-color2" d="M11.067 14.967h-5.244c-0.954 0-1.729-0.776-1.729-1.729v-5.244c0-0.954 0.776-1.73 1.729-1.73h5.244c0.954 0 1.729 0.776 1.729 1.73v5.243c0 0.954-0.775 1.73-1.729 1.73zM5.823 7.598c-0.218 0-0.396 0.178-0.396 0.396v5.243c0 0.218 0.178 0.396 0.396 0.396h5.244c0.218 0 0.396-0.178 0.396-0.396v-5.243c0-0.218-0.178-0.396-0.396-0.396h-5.244z"></path>
<path  class="path6 fill-color2" d="M11.067 25.735h-5.244c-0.954 0-1.729-0.776-1.729-1.73v-5.243c0-0.954 0.776-1.73 1.729-1.73h5.244c0.954 0 1.729 0.776 1.729 1.73v5.243c0 0.954-0.775 1.73-1.729 1.73zM5.823 18.366c-0.218 0-0.396 0.178-0.396 0.396v5.243c0 0.218 0.178 0.396 0.396 0.396h5.244c0.218 0 0.396-0.178 0.396-0.396v-5.243c0-0.218-0.178-0.396-0.396-0.396h-5.244z"></path>
</symbol>
<symbol id="icon-buscador-tienda" viewBox="0 0 32 32">
<title>buscador-tienda</title>
<path  class="path1 fill-color2" d="M12.572 23.872c0 0.715-0.58 1.294-1.294 1.294s-1.294-0.58-1.294-1.294c0-0.715 0.58-1.294 1.294-1.294s1.294 0.58 1.294 1.294z"></path>
<path  class="path2 fill-color2" d="M19.606 23.872c0 0.715-0.58 1.294-1.294 1.294s-1.294-0.58-1.294-1.294c0-0.715 0.58-1.294 1.294-1.294s1.294 0.58 1.294 1.294z"></path>
<path  class="path3 fill-color2" d="M20.462 18.223c-0.341-0.141-0.73 0.021-0.871 0.361l-0.612 1.479h-8.111l-4.172-12.901c-0.003-0.009-0.008-0.016-0.011-0.025-0.008-0.023-0.018-0.044-0.029-0.066-0.009-0.019-0.019-0.037-0.029-0.054-0.011-0.018-0.024-0.036-0.037-0.053s-0.027-0.034-0.042-0.050c-0.014-0.015-0.030-0.029-0.045-0.043s-0.032-0.028-0.050-0.041c-0.018-0.013-0.036-0.024-0.055-0.035-0.018-0.010-0.035-0.021-0.054-0.029-0.020-0.009-0.041-0.017-0.062-0.025-0.020-0.007-0.040-0.014-0.061-0.019s-0.041-0.009-0.062-0.011c-0.023-0.003-0.046-0.006-0.070-0.007-0.009-0-0.018-0.003-0.027-0.003h-3.092c-0.368 0-0.667 0.298-0.667 0.667s0.298 0.667 0.667 0.667h2.607l4.172 12.901c0.089 0.275 0.345 0.461 0.634 0.461h9.042c0.27 0 0.513-0.162 0.616-0.412l0.782-1.89c0.141-0.341-0.021-0.73-0.361-0.871z"></path>
<path  class="path4 fill-color2" d="M11.528 17.333c0 0.368 0.298 0.667 0.667 0.667h2.472c0.368 0 0.667-0.298 0.667-0.667s-0.298-0.667-0.667-0.667h-2.472c-0.368 0-0.667 0.298-0.667 0.667z"></path>
<path  class="path5 fill-color2" d="M11.050 14.267h1.483c0.368 0 0.667-0.298 0.667-0.667s-0.298-0.667-0.667-0.667h-1.483c-0.368 0-0.667 0.298-0.667 0.667s0.299 0.667 0.667 0.667z"></path>
<path  class="path6 fill-color2" d="M29.467 20.933l-6.027-6.027c0.662-0.861 1.060-1.934 1.060-3.101 0-2.814-2.29-5.104-5.104-5.104s-5.104 2.29-5.104 5.104 2.29 5.104 5.104 5.104c1.167 0 2.241-0.398 3.101-1.060l6.027 6.027c0.13 0.13 0.301 0.195 0.471 0.195s0.341-0.065 0.471-0.195c0.26-0.261 0.26-0.682-0-0.943zM15.626 11.804c0-2.079 1.691-3.771 3.771-3.771s3.771 1.691 3.771 3.771c0 0.984-0.382 1.878-1.001 2.55-0.044 0.027-0.086 0.058-0.124 0.095s-0.069 0.080-0.095 0.124c-0.672 0.619-1.566 1.001-2.55 1.001-2.079-0-3.771-1.692-3.771-3.771z"></path>
</symbol>
<symbol id="icon-categorias-tienda" viewBox="0 0 32 32">
<title>categorias-tienda</title>
<path  class="path1 fill-color2" d="M22.933 10.355h-8.533c-0.368 0-0.667-0.298-0.667-0.667s0.298-0.667 0.667-0.667h8.533c0.368 0 0.667 0.298 0.667 0.667s-0.298 0.667-0.667 0.667z"></path>
<path  class="path2 fill-color2" d="M22.845 16.667h-8.445c-0.368 0-0.667-0.298-0.667-0.667s0.298-0.667 0.667-0.667h8.445c0.368 0 0.667 0.298 0.667 0.667s-0.298 0.667-0.667 0.667z"></path>
<path  class="path3 fill-color2" d="M22.933 22.978h-8.533c-0.368 0-0.667-0.298-0.667-0.667s0.298-0.667 0.667-0.667h8.533c0.368 0 0.667 0.298 0.667 0.667s-0.298 0.667-0.667 0.667z"></path>
<path  class="path4 fill-color2" d="M11.472 9.689c0 0.715-0.58 1.294-1.294 1.294s-1.294-0.58-1.294-1.294c0-0.715 0.58-1.294 1.294-1.294s1.294 0.58 1.294 1.294z"></path>
<path  class="path5 fill-color2" d="M11.472 16c0 0.715-0.58 1.294-1.294 1.294s-1.294-0.58-1.294-1.294c0-0.715 0.58-1.294 1.294-1.294s1.294 0.58 1.294 1.294z"></path>
<path  class="path6 fill-color2" d="M11.472 22.311c0 0.715-0.58 1.294-1.294 1.294s-1.294-0.58-1.294-1.294c0-0.715 0.58-1.294 1.294-1.294s1.294 0.58 1.294 1.294z"></path>
</symbol>
<symbol id="icon-footer" viewBox="0 0 32 32">
<title>footer</title>
<path  class="path1 fill-color2" d="M26.667 17.778h-1.9v-8.489h1.9c0.368 0 0.667-0.298 0.667-0.667 0-2.567-1.425-3.245-2.178-3.245v0.058c-0.082-0.036-0.172-0.058-0.267-0.058h-14.055c-1.985 0-3.6 1.615-3.6 3.6v8.801h-1.793c-0.368 0-0.667 0.298-0.667 0.667v7.049c0 0.368 0.298 0.667 0.667 0.667h21.226c0.368 0 0.667-0.298 0.667-0.667v-7.049c0-0.368-0.298-0.667-0.667-0.667zM25.136 6.71c0.266 0.021 0.683 0.319 0.819 1.245h-1.16c0.068-0.754 0.242-1.104 0.341-1.245zM8.567 8.977c0-1.25 1.017-2.267 2.267-2.267h12.846c-0.118 0.374-0.206 0.855-0.235 1.467h-0.011v9.6h-14.867v-8.801zM26 24.826h-19.893v-5.715h19.893v5.715z"></path>
<path  class="path2 fill-color2" d="M8.267 22.711h2.667c0.368 0 0.667-0.298 0.667-0.667s-0.298-0.667-0.667-0.667h-2.667c-0.368 0-0.667 0.298-0.667 0.667s0.298 0.667 0.667 0.667z"></path>
<path  class="path3 fill-color2" d="M14.667 22.711h2.667c0.368 0 0.667-0.298 0.667-0.667s-0.298-0.667-0.667-0.667h-2.667c-0.368 0-0.667 0.298-0.667 0.667s0.298 0.667 0.667 0.667z"></path>
<path  class="path4 fill-color2" d="M21.067 22.711h2.667c0.368 0 0.667-0.298 0.667-0.667s-0.298-0.667-0.667-0.667h-2.667c-0.368 0-0.667 0.298-0.667 0.667s0.298 0.667 0.667 0.667z"></path>
</symbol>
<symbol id="icon-menu" viewBox="0 0 32 32">
<title>menu</title>
<path  class="path1 fill-color2" d="M22.4 13.734h-12.711c-0.368 0-0.667-0.298-0.667-0.667s0.298-0.667 0.667-0.667h12.711c0.368 0 0.667 0.298 0.667 0.667s-0.298 0.667-0.667 0.667z"></path>
<path  class="path2 fill-color2" d="M22.4 16.667h-12.711c-0.368 0-0.667-0.298-0.667-0.667s0.298-0.667 0.667-0.667h12.711c0.368 0 0.667 0.298 0.667 0.667s-0.298 0.667-0.667 0.667z"></path>
<path  class="path3 fill-color2" d="M22.4 19.778h-12.711c-0.368 0-0.667-0.298-0.667-0.667s0.298-0.667 0.667-0.667h12.711c0.368 0 0.667 0.298 0.667 0.667s-0.298 0.667-0.667 0.667z"></path>
<path  class="path4 fill-color2" d="M24.239 22.978h-16.478c-0.751 0-1.339-0.502-1.339-1.143v-11.67c0-0.641 0.588-1.143 1.339-1.143h16.478c0.751 0 1.339 0.502 1.339 1.143v11.67c0 0.641-0.588 1.143-1.339 1.143zM7.755 21.645c0.002 0 0.004 0 0.006 0h16.478c0.002 0 0.004 0 0.006 0v-11.29c-0.002 0-0.004 0-0.006 0h-16.477c-0.002 0-0.004 0-0.006 0v11.29z"></path>
</symbol>
<symbol id="icon-tienda" viewBox="0 0 32 32">
<title>tienda</title>
<path  class="path1 fill-color2" d="M15.211 23.937c0 0.715-0.58 1.294-1.294 1.294s-1.294-0.58-1.294-1.294c0-0.715 0.58-1.294 1.294-1.294s1.294 0.58 1.294 1.294z"></path>
<path  class="path2 fill-color2" d="M22.244 23.937c0 0.715-0.58 1.294-1.294 1.294s-1.294-0.58-1.294-1.294c0-0.715 0.58-1.294 1.294-1.294s1.294 0.58 1.294 1.294z"></path>
<path  class="path3 fill-color2" d="M27.116 10.327c0.141-0.34-0.021-0.73-0.361-0.871s-0.73 0.021-0.871 0.361l-1.317 3.181h-11.146c-0.368 0-0.667 0.298-0.667 0.667s0.298 0.667 0.667 0.667h10.594l-0.993 2.4h-8.456c-0.368 0-0.667 0.298-0.667 0.667s0.298 0.667 0.667 0.667h7.904l-0.854 2.063h-8.111l-4.171-12.901c-0.003-0.009-0.008-0.016-0.011-0.025-0.008-0.023-0.018-0.045-0.029-0.067-0.009-0.018-0.018-0.036-0.029-0.053-0.012-0.019-0.025-0.037-0.039-0.055-0.013-0.017-0.026-0.033-0.040-0.049-0.015-0.016-0.031-0.030-0.047-0.045s-0.031-0.027-0.048-0.040c-0.018-0.013-0.037-0.024-0.056-0.036-0.017-0.010-0.035-0.021-0.054-0.029-0.020-0.009-0.040-0.017-0.061-0.024s-0.041-0.014-0.062-0.019c-0.019-0.005-0.039-0.008-0.060-0.011-0.024-0.004-0.049-0.006-0.073-0.007-0.009-0-0.017-0.003-0.026-0.003h-3.093c-0.368 0-0.667 0.298-0.667 0.667s0.298 0.667 0.667 0.667h2.607l4.172 12.901c0.089 0.275 0.345 0.461 0.634 0.461h9.042c0.27 0 0.513-0.162 0.616-0.412l2.901-7.011c0.050-0.073 0.084-0.156 0.102-0.246l1.434-3.465z"></path>
</symbol>
<symbol id="icon-boton" viewBox="0 0 32 32">
<title>boton</title>
<path class="path1" d="M26 18.521c-0.331 0-0.6-0.269-0.6-0.6v-5.493h-18.718v4.894h7.604c0.331 0 0.6 0.269 0.6 0.6s-0.269 0.6-0.6 0.6h-8.203c-0.331 0-0.6-0.269-0.6-0.6v-6.094c0-0.331 0.269-0.6 0.6-0.6h19.917c0.331 0 0.6 0.269 0.6 0.6v6.094c-0.001 0.331-0.269 0.599-0.6 0.599zM18.332 22.963c-0.109 0-0.219-0.029-0.315-0.089-0.169-0.104-0.275-0.286-0.284-0.484l-0.37-8.488c-0.011-0.246 0.13-0.474 0.354-0.574 0.226-0.1 0.487-0.053 0.664 0.118l6.084 5.932c0.143 0.139 0.207 0.339 0.172 0.535-0.035 0.195-0.164 0.361-0.346 0.442l-1.498 0.67c-0.304 0.133-0.658 0-0.793-0.303s0-0.657 0.303-0.793l0.691-0.31-4.367-4.257 0.266 6.093 1.386-0.62c0.304-0.134 0.658 0.001 0.793 0.303 0.135 0.303 0 0.657-0.303 0.793l-2.191 0.98c-0.079 0.035-0.163 0.052-0.246 0.052zM22.748 26.952c-0.229 0-0.448-0.133-0.548-0.355l-2.225-4.969c-0.135-0.303 0-0.657 0.303-0.793 0.299-0.134 0.657 0 0.793 0.303l2.225 4.969c0.135 0.303 0 0.657-0.303 0.793-0.079 0.035-0.163 0.052-0.245 0.052z"></path>
</symbol>
<symbol id="icon-call" viewBox="0 0 32 32">
<title>call</title>
<path class="path1" d="M26.083 22.434c-0.331 0-0.6-0.269-0.6-0.6v-11.317h-18.884v10.717h6.359c0.331 0 0.6 0.269 0.6 0.6s-0.269 0.6-0.6 0.6h-6.958c-0.331 0-0.6-0.269-0.6-0.6v-11.917c0-0.331 0.269-0.6 0.6-0.6h20.083c0.331 0 0.6 0.269 0.6 0.6v11.917c-0.001 0.331-0.269 0.6-0.6 0.6zM13.542 17.686h-1.459c-0.331 0-0.6-0.269-0.6-0.6v-2.422c0-0.332 0.269-0.6 0.6-0.6h7.917c0.331 0 0.6 0.269 0.6 0.6v1.586c0 0.332-0.269 0.6-0.6 0.6s-0.6-0.268-0.6-0.6v-0.986h-6.718v1.222h0.859c0.331 0 0.6 0.269 0.6 0.6s-0.268 0.6-0.599 0.6zM20.978 28.952c-0.229 0-0.448-0.133-0.548-0.355l-2.225-4.969c-0.135-0.303 0-0.657 0.303-0.793 0.298-0.133 0.657 0 0.793 0.303l2.225 4.969c0.135 0.303 0 0.657-0.303 0.793-0.079 0.035-0.163 0.052-0.245 0.052zM16.562 24.963c-0.109 0-0.219-0.029-0.315-0.089-0.169-0.104-0.275-0.286-0.284-0.484l-0.37-8.488c-0.011-0.246 0.13-0.474 0.354-0.574 0.225-0.1 0.488-0.054 0.664 0.118l6.084 5.932c0.143 0.139 0.207 0.339 0.172 0.535-0.035 0.195-0.164 0.361-0.346 0.442l-1.498 0.67c-0.305 0.134-0.658 0-0.793-0.303s0-0.657 0.303-0.793l0.691-0.31-4.367-4.258 0.266 6.094 1.386-0.62c0.304-0.133 0.658 0 0.793 0.303s0 0.657-0.303 0.793l-2.191 0.98c-0.079 0.035-0.163 0.052-0.246 0.052z"></path>
</symbol>
<symbol id="icon-clientes" viewBox="0 0 32 32">
<title>clientes</title>
<path class="path1" d="M32 16l-3.75-3.166v6.332zM0 16l3.75 3.166v-6.332zM12.75 24.082c0 0.414-0.336 0.75-0.75 0.75s-0.75-0.336-0.75-0.75c0-0.414 0.336-0.75 0.75-0.75s0.75 0.336 0.75 0.75zM12 25.332c-0.689 0-1.25-0.561-1.25-1.25s0.561-1.25 1.25-1.25 1.25 0.561 1.25 1.25-0.561 1.25-1.25 1.25zM12 23.832c-0.138 0-0.25 0.112-0.25 0.25 0 0.275 0.5 0.275 0.5 0 0-0.138-0.112-0.25-0.25-0.25zM16.75 24.082c0 0.414-0.336 0.75-0.75 0.75s-0.75-0.336-0.75-0.75c0-0.414 0.336-0.75 0.75-0.75s0.75 0.336 0.75 0.75zM16 25.332c-0.689 0-1.25-0.561-1.25-1.25s0.561-1.25 1.25-1.25 1.25 0.561 1.25 1.25-0.561 1.25-1.25 1.25zM16 23.832c-0.138 0-0.25 0.112-0.25 0.25 0 0.275 0.5 0.275 0.5 0 0-0.138-0.112-0.25-0.25-0.25zM20.75 24.082c0 0.414-0.336 0.75-0.75 0.75s-0.75-0.336-0.75-0.75c0-0.414 0.336-0.75 0.75-0.75s0.75 0.336 0.75 0.75zM20 25.332c-0.689 0-1.25-0.561-1.25-1.25s0.561-1.25 1.25-1.25 1.25 0.561 1.25 1.25-0.561 1.25-1.25 1.25zM20 23.832c-0.138 0-0.25 0.112-0.25 0.25 0 0.275 0.5 0.275 0.5 0 0-0.138-0.112-0.25-0.25-0.25zM24 20.516h-6c-0.882 0-1.6-0.718-1.6-1.6v-5.999c0-0.882 0.718-1.6 1.6-1.6h6c0.882 0 1.6 0.718 1.6 1.6v5.999c0 0.882-0.718 1.6-1.6 1.6zM18 12.517c-0.221 0-0.4 0.179-0.4 0.4v5.999c0 0.221 0.179 0.401 0.4 0.401h6c0.221 0 0.4-0.18 0.4-0.4v-6c0-0.221-0.18-0.4-0.4-0.4h-6zM14.083 20.516h-6c-0.882 0-1.6-0.718-1.6-1.6v-5.999c0-0.882 0.718-1.6 1.6-1.6h6c0.882 0 1.6 0.718 1.6 1.6v5.999c0 0.882-0.718 1.6-1.6 1.6zM8.083 12.517c-0.221 0-0.4 0.179-0.4 0.4v5.999c0 0.221 0.18 0.4 0.4 0.4h6c0.221 0 0.4-0.18 0.4-0.4v-5.999c0-0.221-0.18-0.4-0.4-0.4h-6z"></path>
</symbol>
<symbol id="icon-contacto" viewBox="0 0 32 32">
<title>contacto</title>
<path class="path1" d="M24 7.281c-3.268 0-5.917 2.649-5.917 5.918 0 0.703 0.079 1.395 0.354 2 1.183 2.603 5.563 9.352 5.563 9.352s4.378-6.748 5.563-9.352c0.275-0.605 0.354-1.297 0.354-2 0-3.269-2.65-5.918-5.917-5.918zM24 16.011c-1.553 0-2.813-1.26-2.813-2.813s1.26-2.813 2.813-2.813c1.554 0 2.813 1.259 2.813 2.813-0.001 1.554-1.26 2.813-2.813 2.813zM19.833 22.433h-12.833c-0.882 0-1.6-0.718-1.6-1.6v-9.916c0-0.882 0.718-1.6 1.6-1.6h8.708c0.331 0 0.6 0.269 0.6 0.6s-0.269 0.6-0.6 0.6h-8.708c-0.221 0-0.4 0.179-0.4 0.4v9.917c0 0.221 0.18 0.4 0.4 0.4h12.833c0.331 0 0.6 0.269 0.6 0.6s-0.269 0.599-0.6 0.599zM14.625 14.516h-5.625c-0.331 0-0.6-0.269-0.6-0.6s0.269-0.6 0.6-0.6h5.625c0.331 0 0.6 0.269 0.6 0.6s-0.269 0.6-0.6 0.6zM12.708 18.599h-3.708c-0.331 0-0.6-0.269-0.6-0.6s0.269-0.6 0.6-0.6h3.708c0.331 0 0.6 0.269 0.6 0.6s-0.269 0.6-0.6 0.6z"></path>
</symbol>
<symbol id="icon-columna" viewBox="0 0 32 32">
<title>columna</title>
<path class="path1" d="M12.067 5.917h1.199v19.999h-1.199v-19.999zM18.733 5.917h1.199v19.833h-1.199v-19.833zM25 26.516h-18c-0.882 0-1.6-0.718-1.6-1.6v-17.999c0-0.882 0.718-1.6 1.6-1.6h18c0.882 0 1.6 0.718 1.6 1.6v17.999c-0.001 0.882-0.719 1.6-1.6 1.6zM7 6.517c-0.221 0-0.4 0.179-0.4 0.4v17.999c0 0.221 0.18 0.4 0.4 0.4h18c0.221 0 0.4-0.18 0.4-0.4v-17.999c0-0.221-0.18-0.4-0.4-0.4h-18z"></path>
</symbol>
<symbol id="icon-formulario" viewBox="0 0 32 32">
<title>formulario</title>
<path class="path1" d="M16 24.184c-4.56 0-8.269-3.709-8.269-8.268s3.709-8.268 8.269-8.268c4.559 0 8.268 3.709 8.268 8.268 0 0.332-0.269 0.6-0.6 0.6s-0.6-0.269-0.6-0.6c0-3.897-3.171-7.068-7.068-7.068s-7.069 3.17-7.069 7.068 3.172 7.068 7.069 7.068c1.861 0 3.619-0.719 4.949-2.022 0.235-0.231 0.615-0.229 0.849 0.009 0.231 0.236 0.228 0.616-0.009 0.849-1.556 1.524-3.612 2.364-5.789 2.364zM16 19.307c-1.871 0-3.393-1.521-3.393-3.391 0-1.871 1.521-3.393 3.393-3.393 1.87 0 3.392 1.522 3.392 3.393-0.001 1.87-1.522 3.391-3.392 3.391zM16 13.723c-1.209 0-2.193 0.984-2.193 2.193 0 1.208 0.984 2.191 2.193 2.191s2.192-0.983 2.192-2.191c0-1.209-0.983-2.193-2.192-2.193zM18.792 17.502c-0.331 0-0.6-0.269-0.6-0.6v-3.777c0-0.332 0.269-0.6 0.6-0.6s0.6 0.269 0.6 0.6v3.777c-0.001 0.331-0.269 0.6-0.6 0.6zM21.227 19.037c-1.625 0-2.957-1.273-3.032-2.9 0-0.331 0.268-0.668 0.599-0.668s0.598 0.2 0.598 0.532c0.048 1.066 0.854 1.838 1.836 1.838 1.013 0 1.837-0.824 1.837-1.838 0-0.332 0.269-0.6 0.6-0.6s0.6 0.269 0.6 0.6c-0.002 1.674-1.363 3.036-3.038 3.036z"></path>
</symbol>
<symbol id="icon-html" viewBox="0 0 32 32">
<title>html</title>
<path class="path1" d="M12.709 17.794v2.44l-8.675-3.759v-2.087l8.675-3.76v2.458l-6.045 2.328 6.045 2.38zM18.072 10.576l-2.414 9.942c-0.081 0.327-0.151 0.586-0.211 0.776-0.061 0.189-0.153 0.338-0.276 0.443-0.124 0.106-0.304 0.16-0.539 0.16-0.586 0-0.88-0.253-0.88-0.759 0-0.133 0.058-0.463 0.173-0.992l2.406-9.942c0.126-0.529 0.247-0.891 0.362-1.086s0.339-0.292 0.672-0.292c0.288 0 0.508 0.069 0.66 0.207s0.229 0.328 0.229 0.569c0 0.179-0.061 0.503-0.182 0.974zM27.964 16.475l-8.675 3.776v-2.44l6.063-2.379-6.063-2.346v-2.423l8.675 3.743v2.069z"></path>
</symbol>
<symbol id="icon-iconos" viewBox="0 0 32 32">
<title>iconos</title>
<path class="path1" d="M16 24.684c-4.834 0-8.767-3.933-8.767-8.768 0-4.833 3.933-8.766 8.767-8.766s8.767 3.933 8.767 8.766c-0.001 4.835-3.933 8.768-8.767 8.768zM16 8.35c-4.173 0-7.567 3.394-7.567 7.566s3.395 7.568 7.567 7.568 7.567-3.396 7.567-7.568c0-4.172-3.395-7.566-7.567-7.566zM16 20.748c2.077 0 3.841-1.67 4.496-3.998h-8.993c0.655 2.328 2.418 3.998 4.497 3.998zM20.375 13.75c0 0.759-0.616 1.375-1.375 1.375s-1.375-0.616-1.375-1.375c0-0.759 0.616-1.375 1.375-1.375s1.375 0.616 1.375 1.375zM14.375 13.75c0 0.759-0.616 1.375-1.375 1.375s-1.375-0.616-1.375-1.375c0-0.759 0.616-1.375 1.375-1.375s1.375 0.616 1.375 1.375z"></path>
</symbol>
<symbol id="icon-imagen" viewBox="0 0 32 32">
<title>imagen</title>
<path class="path1" d="M16 11.080c-0.331 0-0.6-0.269-0.6-0.6v-1.5c0-0.332 0.269-0.6 0.6-0.6s0.6 0.269 0.6 0.6v1.5c-0.001 0.331-0.269 0.6-0.6 0.6zM12.155 12.672c-0.153 0-0.307-0.059-0.424-0.176l-1.060-1.060c-0.234-0.234-0.234-0.614 0-0.849s0.613-0.234 0.848 0l1.061 1.061c0.234 0.234 0.234 0.614 0 0.849-0.118 0.117-0.272 0.175-0.425 0.175zM19.844 12.672c-0.153 0-0.307-0.059-0.424-0.176-0.234-0.234-0.234-0.614 0-0.849l1.061-1.061c0.234-0.234 0.613-0.234 0.848 0s0.234 0.614 0 0.849l-1.061 1.062c-0.117 0.117-0.27 0.175-0.424 0.175zM13.062 22.516c-0.331 0-0.6-0.269-0.6-0.6s0.269-0.6 0.6-0.6c0.512 0 1.803-0.927 2.466-1.771 4.871-5.768 10.204-6.211 10.429-6.228 0.315-0.029 0.616 0.224 0.641 0.555s-0.224 0.617-0.554 0.642c-0.050 0.004-5.073 0.445-9.586 5.789-0.721 0.919-2.314 2.213-3.396 2.213zM16 20.516c-0.16 0-0.32-0.063-0.438-0.189-4.234-4.528-9.17-3.82-9.219-3.812-0.326 0.046-0.635-0.172-0.686-0.5s0.173-0.634 0.5-0.685c0.227-0.035 5.618-0.809 10.281 4.177 0.227 0.242 0.213 0.622-0.028 0.849-0.116 0.107-0.264 0.16-0.41 0.16zM25 26.516h-18c-0.882 0-1.6-0.718-1.6-1.6v-17.999c0-0.882 0.718-1.6 1.6-1.6h18c0.882 0 1.6 0.718 1.6 1.6v17.999c-0.001 0.882-0.719 1.6-1.6 1.6zM7 6.517c-0.221 0-0.4 0.179-0.4 0.4v17.999c0 0.221 0.18 0.4 0.4 0.4h18c0.221 0 0.4-0.18 0.4-0.4v-17.999c0-0.221-0.18-0.4-0.4-0.4h-18zM11.588 17.223c-0.125-0.423-0.188-0.863-0.188-1.307 0-2.536 2.063-4.599 4.6-4.599s4.6 2.063 4.6 4.599c0 0.16-0.008 0.315-0.023 0.468l-1.193-0.123c0.010-0.113 0.016-0.227 0.016-0.345 0-1.874-1.525-3.399-3.4-3.399s-3.4 1.525-3.4 3.399c0 0.329 0.047 0.654 0.14 0.966l-1.152 0.341z"></path>
</symbol>
<symbol id="icon-mapa" viewBox="0 0 32 32">
<title>mapa</title>
<path class="path1" d="M25 26.416h-17.9c-0.882 0-1.6-0.718-1.6-1.6 0-0.050 0.006-0.099 0.019-0.147l2-7.9c0.138-0.615 0.457-1.453 1.582-1.453h2.15c0.332 0 0.6 0.269 0.6 0.6s-0.269 0.6-0.6 0.6h-2.151c-0.196 0-0.295 0-0.415 0.532l-1.981 7.827c0.028 0.192 0.195 0.342 0.396 0.342h17.9c0.201 0 0.367-0.149 0.396-0.342l-1.978-7.812c-0.043-0.156-0.177-0.547-0.418-0.547h-2.375c-0.331 0-0.6-0.269-0.6-0.6s0.269-0.6 0.6-0.6h2.375c0.75 0 1.325 0.525 1.578 1.44l2.004 7.913c0.012 0.049 0.018 0.098 0.018 0.147 0 0.882-0.718 1.6-1.6 1.6zM16 2.334c-3.268 0-5.917 2.648-5.917 5.917 0 0.703 0.079 1.395 0.354 2 1.183 2.604 5.563 9.353 5.563 9.353s4.378-6.748 5.563-9.353c0.275-0.605 0.354-1.297 0.354-2 0-3.269-2.649-5.917-5.917-5.917zM16 11.063c-1.553 0-2.813-1.259-2.813-2.813s1.26-2.812 2.813-2.812c1.554 0 2.813 1.259 2.813 2.813s-1.259 2.812-2.813 2.812z"></path>
</symbol>
<symbol id="icon-mediabox" viewBox="0 0 32 32">
<title>mediabox</title>
<path class="path1" d="M22.842 12.517h-5.104c-0.331 0-0.6-0.269-0.6-0.6s0.269-0.6 0.6-0.6h5.104c0.331 0 0.6 0.269 0.6 0.6s-0.269 0.6-0.6 0.6zM27.875 16.516h-10.209c-0.331 0-0.6-0.269-0.6-0.6s0.269-0.6 0.6-0.6h10.209c0.331 0 0.6 0.269 0.6 0.6s-0.269 0.6-0.6 0.6zM26.269 20.434h-8.584c-0.331 0-0.6-0.269-0.6-0.6s0.269-0.6 0.6-0.6h8.584c0.331 0 0.6 0.269 0.6 0.6s-0.269 0.6-0.6 0.6zM13 22.328h-8.062c-0.882 0-1.6-0.718-1.6-1.6v-9.686c0-0.882 0.718-1.6 1.6-1.6h8.063c0.882 0 1.6 0.718 1.6 1.6v9.687c-0.001 0.881-0.719 1.599-1.601 1.599zM4.938 10.642c-0.221 0-0.4 0.179-0.4 0.4v9.687c0 0.221 0.18 0.4 0.4 0.4h8.063c0.221 0 0.4-0.18 0.4-0.4v-9.687c0-0.221-0.18-0.4-0.4-0.4h-8.063z"></path>
</symbol>
<symbol id="icon-newsletter" viewBox="0 0 32 32">
<title>newsletter</title>
<path class="path1" d="M6.001 14.516c-0.199 0-0.394-0.099-0.508-0.279-0.178-0.28-0.094-0.65 0.185-0.828l10-6.333c0.281-0.177 0.65-0.094 0.828 0.186s0.094 0.65-0.186 0.828l-10 6.333c-0.099 0.063-0.21 0.093-0.319 0.093zM25.999 14.516c-0.109 0-0.221-0.030-0.32-0.093l-10-6.333c-0.28-0.177-0.364-0.548-0.186-0.828 0.177-0.28 0.548-0.363 0.828-0.186l10 6.333c0.279 0.177 0.363 0.548 0.186 0.828-0.115 0.181-0.309 0.279-0.508 0.279zM26 25.516c-0.331 0-0.6-0.269-0.6-0.6v-10.832c0-0.332 0.269-0.6 0.6-0.6s0.6 0.269 0.6 0.6v10.832c-0.001 0.331-0.269 0.6-0.6 0.6zM6 25.516c-0.331 0-0.6-0.269-0.6-0.6v-10.832c0-0.439 0.253-0.603 0.404-0.661l0.384-0.148 0.148 0.153 0.008-0.006 10.021 5.512c0.29 0.159 0.396 0.524 0.236 0.814-0.159 0.291-0.523 0.397-0.814 0.236l-9.188-5.053v9.985c0 0.331-0.268 0.6-0.599 0.6zM25 26.516h-18c-0.882 0-1.6-0.718-1.6-1.6 0-0.331 0.269-0.6 0.6-0.6s0.6 0.269 0.6 0.6c0 0.221 0.18 0.4 0.4 0.4h18c0.107 0 0.206-0.043 0.277-0.113l-9.49-5.219c-0.29-0.159-0.396-0.524-0.236-0.814 0.158-0.29 0.523-0.397 0.814-0.236l10.234 5.628v0.354c0 0.882-0.718 1.6-1.599 1.6zM16.077 20.060c-0.214 0-0.42-0.114-0.528-0.314-0.158-0.292-0.050-0.656 0.241-0.813l9.647-5.225c0.293-0.158 0.656-0.048 0.813 0.242 0.158 0.292 0.050 0.655-0.241 0.813l-9.647 5.224c-0.091 0.049-0.19 0.073-0.285 0.073z"></path>
</symbol>
<symbol id="icon-parrafo" viewBox="0 0 32 32">
<title>parrafo</title>
<path class="path1" d="M26 14.516h-20c-0.331 0-0.6-0.269-0.6-0.6s0.269-0.6 0.6-0.6h20c0.331 0 0.6 0.269 0.6 0.6s-0.269 0.6-0.6 0.6zM26 10.6h-20c-0.331 0-0.6-0.268-0.6-0.6s0.269-0.6 0.6-0.6h20c0.331 0 0.6 0.269 0.6 0.6s-0.269 0.6-0.6 0.6zM24 18.516h-18c-0.331 0-0.6-0.269-0.6-0.6s0.269-0.6 0.6-0.6h18c0.331 0 0.6 0.269 0.6 0.6s-0.269 0.6-0.6 0.6zM26 22.516h-20c-0.331 0-0.6-0.269-0.6-0.6s0.269-0.6 0.6-0.6h20c0.331 0 0.6 0.269 0.6 0.6s-0.269 0.6-0.6 0.6z"></path>
</symbol>
<symbol id="icon-redes" viewBox="0 0 32 32">
<title>redes</title>
<path class="path1" d="M20.59 27.877c-0.16 0-0.313-0.063-0.426-0.177l-2.998-3.019h-11.48c-0.97 0-1.758-0.789-1.758-1.76v-14.2c0-0.97 0.788-1.759 1.758-1.759h20.629c0.97 0 1.758 0.789 1.758 1.759v14.2c0 0.971-0.788 1.76-1.758 1.76h-2.301l-2.998 3.019c-0.112 0.113-0.266 0.177-0.426 0.177zM5.686 8.162c-0.308 0-0.559 0.251-0.559 0.559v14.2c0 0.309 0.251 0.561 0.559 0.561h11.73c0.16 0 0.313 0.063 0.426 0.177l2.748 2.767 2.748-2.767c0.112-0.113 0.266-0.177 0.426-0.177h2.551c0.308 0 0.559-0.252 0.559-0.561v-14.2c0-0.308-0.251-0.559-0.559-0.559h-20.629zM19.265 10.004l-1.797 0.001c0 0-0.036-0.003-0.103-0.003-0.369 0-2.236 0.103-2.742 2.104-0.010 0.022-0.179 0.522-0.182 1.687h-1.704c-0.153 0-0.275 0.123-0.275 0.275v1.572c0 0.15 0.122 0.273 0.275 0.273h1.864v5.645c0 0.15 0.124 0.275 0.275 0.275h2.136c0.15 0 0.274-0.125 0.274-0.275v-5.638h1.872c0.149 0 0.274-0.123 0.274-0.273v-1.579c0-0.152-0.125-0.275-0.274-0.275h-1.869v-0.674c0-0.449 0.285-0.929 1.085-0.929h0.891c0.151 0 0.274-0.123 0.274-0.273v-1.639c0-0.151-0.122-0.274-0.274-0.274z"></path>
</symbol>
<symbol id="icon-separador" viewBox="0 0 32 32">
<title>separador</title>
<path class="path1" d="M29 15.725h-26c-0.331 0-0.6-0.268-0.6-0.6s0.269-0.6 0.6-0.6h26c0.331 0 0.6 0.269 0.6 0.6s-0.269 0.6-0.6 0.6zM3 17.832c-0.12 0-0.24-0.043-0.336-0.13-0.204-0.184-0.22-0.501-0.035-0.706l2-2.207c0.187-0.205 0.503-0.218 0.706-0.035 0.205 0.186 0.22 0.502 0.035 0.707l-2 2.207c-0.099 0.108-0.235 0.164-0.37 0.164zM7 17.832c-0.12 0-0.24-0.043-0.336-0.13-0.204-0.184-0.22-0.501-0.035-0.706l2-2.207c0.187-0.205 0.503-0.218 0.706-0.035 0.205 0.186 0.22 0.502 0.035 0.707l-2 2.207c-0.099 0.108-0.235 0.164-0.37 0.164zM11 17.832c-0.12 0-0.24-0.043-0.336-0.13-0.204-0.184-0.22-0.501-0.035-0.706l2-2.207c0.187-0.205 0.502-0.218 0.706-0.035 0.204 0.186 0.22 0.502 0.034 0.707l-2 2.207c-0.098 0.108-0.234 0.164-0.369 0.164zM15 17.832c-0.12 0-0.24-0.043-0.336-0.13-0.204-0.185-0.22-0.501-0.034-0.706l2-2.207c0.187-0.205 0.503-0.218 0.706-0.035 0.204 0.186 0.22 0.502 0.034 0.707l-2 2.207c-0.099 0.108-0.235 0.164-0.37 0.164zM19 17.832c-0.12 0-0.24-0.043-0.336-0.13-0.204-0.185-0.22-0.501-0.034-0.706l2-2.207c0.187-0.205 0.503-0.218 0.706-0.035 0.204 0.186 0.22 0.502 0.034 0.707l-2 2.207c-0.099 0.108-0.235 0.164-0.37 0.164zM23 17.832c-0.12 0-0.24-0.043-0.336-0.13-0.204-0.185-0.22-0.501-0.034-0.706l2-2.207c0.187-0.205 0.503-0.218 0.706-0.035 0.204 0.186 0.22 0.502 0.034 0.707l-2 2.207c-0.099 0.108-0.235 0.164-0.37 0.164zM27 17.832c-0.12 0-0.24-0.043-0.336-0.13-0.204-0.185-0.22-0.501-0.034-0.706l2-2.207c0.187-0.205 0.503-0.218 0.706-0.035 0.204 0.186 0.22 0.502 0.034 0.707l-2 2.207c-0.099 0.108-0.235 0.164-0.37 0.164z"></path>
</symbol>
<symbol id="icon-slider" viewBox="0 0 32 32">
<title>slider</title>
<path class="path1" d="M0 15.918l3.75 3.166v-6.333zM32 15.917l-3.75-3.166v6.333zM12.75 28.916c0 0.414-0.336 0.75-0.75 0.75s-0.75-0.336-0.75-0.75c0-0.414 0.336-0.75 0.75-0.75s0.75 0.336 0.75 0.75zM12 30.166c-0.689 0-1.25-0.561-1.25-1.25s0.561-1.25 1.25-1.25 1.25 0.561 1.25 1.25-0.561 1.25-1.25 1.25zM12 28.666c-0.138 0-0.25 0.112-0.25 0.25 0 0.275 0.5 0.275 0.5 0 0-0.138-0.112-0.25-0.25-0.25zM16.75 28.916c0 0.414-0.336 0.75-0.75 0.75s-0.75-0.336-0.75-0.75c0-0.414 0.336-0.75 0.75-0.75s0.75 0.336 0.75 0.75zM16 30.166c-0.689 0-1.25-0.561-1.25-1.25s0.561-1.25 1.25-1.25 1.25 0.561 1.25 1.25-0.561 1.25-1.25 1.25zM16 28.666c-0.138 0-0.25 0.112-0.25 0.25 0 0.275 0.5 0.275 0.5 0 0-0.138-0.112-0.25-0.25-0.25zM20.75 28.916c0 0.414-0.336 0.75-0.75 0.75s-0.75-0.336-0.75-0.75c0-0.414 0.336-0.75 0.75-0.75s0.75 0.336 0.75 0.75zM20 30.166c-0.689 0-1.25-0.561-1.25-1.25s0.561-1.25 1.25-1.25 1.25 0.561 1.25 1.25-0.561 1.25-1.25 1.25zM20 28.666c-0.138 0-0.25 0.112-0.25 0.25 0 0.275 0.5 0.275 0.5 0 0-0.138-0.112-0.25-0.25-0.25zM13.063 22.516c-0.331 0-0.6-0.269-0.6-0.6s0.269-0.6 0.6-0.6c0.512 0 1.803-0.927 2.466-1.771 4.87-5.768 10.203-6.211 10.428-6.228 0.325-0.029 0.616 0.224 0.641 0.555s-0.224 0.617-0.554 0.642c-0.050 0.004-5.073 0.445-9.586 5.789-0.721 0.919-2.313 2.213-3.395 2.213zM16 20.516c-0.16 0-0.32-0.063-0.438-0.189-4.234-4.528-9.171-3.82-9.219-3.812-0.322 0.046-0.635-0.172-0.686-0.5s0.173-0.634 0.5-0.685c0.227-0.035 5.618-0.809 10.281 4.177 0.227 0.242 0.213 0.622-0.028 0.849-0.116 0.107-0.264 0.16-0.41 0.16zM25 26.516h-18c-0.882 0-1.6-0.718-1.6-1.6v-17.999c0-0.882 0.718-1.6 1.6-1.6h18c0.882 0 1.6 0.718 1.6 1.6v17.999c0 0.882-0.718 1.6-1.6 1.6zM7 6.517c-0.221 0-0.4 0.179-0.4 0.4v17.999c0 0.221 0.179 0.401 0.4 0.401h18c0.221 0 0.4-0.18 0.4-0.4v-18c0-0.221-0.18-0.4-0.4-0.4h-18zM11.589 17.223c-0.125-0.425-0.188-0.864-0.188-1.307-0.001-2.536 2.063-4.599 4.599-4.599s4.6 2.063 4.6 4.599c0 0.16-0.008 0.315-0.023 0.468l-1.193-0.123c0.012-0.113 0.018-0.227 0.018-0.345-0.002-1.874-1.527-3.399-3.402-3.399s-3.4 1.525-3.4 3.399c0 0.327 0.047 0.653 0.14 0.967l-1.151 0.34zM16 11.080c-0.331 0-0.6-0.269-0.6-0.6v-1.5c0-0.332 0.269-0.6 0.6-0.6s0.6 0.269 0.6 0.6v1.5c0 0.331-0.269 0.6-0.6 0.6zM12.155 12.672c-0.153 0-0.307-0.059-0.424-0.176l-1.061-1.061c-0.234-0.234-0.234-0.614 0-0.849s0.613-0.234 0.848 0l1.061 1.061c0.234 0.234 0.234 0.614 0 0.849-0.117 0.118-0.27 0.176-0.424 0.176zM19.845 12.672c-0.153 0-0.307-0.059-0.424-0.176-0.234-0.234-0.234-0.614 0-0.849l1.061-1.061c0.234-0.234 0.613-0.234 0.848 0s0.234 0.614 0 0.849l-1.061 1.062c-0.118 0.117-0.271 0.175-0.424 0.175z"></path>
</symbol>
<symbol id="icon-staff" viewBox="0 0 32 32">
<title>staff</title>
<path class="path1" d="M16 25.684c-6.049 0-8.592-1.876-8.696-1.956-0.15-0.114-0.238-0.29-0.238-0.478v-0.166c0-3.397 2.516-6.171 5.828-6.55v-0.76c-0.356-0.543-0.645-1.172-0.861-1.874-0.392-0.308-0.633-0.844-0.633-1.445 0-0.34 0.077-0.67 0.222-0.949-0.009-0.167-0.013-0.335-0.013-0.505 0-0.092 0.003-0.182 0.007-0.271 0 0 0.004-0.101 0.004-0.101 0.010-0.255 0.026-0.507 0.053-0.752 0.346-2.172 2.164-3.727 4.327-3.727s3.98 1.555 4.323 3.697c0.030 0.275 0.047 0.527 0.057 0.782l0.004 0.101c0.004 0.089 0.007 0.18 0.007 0.271 0 0.17-0.004 0.338-0.013 0.505 0.145 0.279 0.222 0.609 0.222 0.949 0 0.601-0.241 1.137-0.633 1.445-0.216 0.701-0.505 1.33-0.861 1.874v0.76c3.313 0.379 5.828 3.153 5.828 6.55v0.166c0 0.188-0.088 0.364-0.237 0.478-0.106 0.080-2.649 1.956-8.697 1.956zM8.268 22.922c0.726 0.417 3.136 1.563 7.731 1.563 4.593 0 7.003-1.144 7.731-1.563-0.083-2.865-2.355-5.148-5.242-5.23-0.325-0.009-0.583-0.274-0.583-0.6v-1.441c-0.014-0.14 0.021-0.282 0.104-0.4 0.363-0.517 0.663-1.172 0.865-1.896 0.048-0.17 0.167-0.31 0.327-0.384 0.069-0.031 0.197-0.215 0.197-0.515 0-0.178-0.046-0.346-0.124-0.459s-0.116-0.247-0.106-0.383c0.014-0.2 0.021-0.404 0.021-0.611l-0.011-0.331c-0.008-0.224-0.022-0.446-0.047-0.664-0.243-1.528-1.562-2.658-3.131-2.658s-2.889 1.13-3.138 2.686c-0.021 0.188-0.035 0.411-0.043 0.636l-0.011 0.329c0 0.207 0.008 0.411 0.021 0.611 0.010 0.136-0.028 0.271-0.106 0.383-0.078 0.114-0.124 0.282-0.124 0.46 0 0.3 0.128 0.484 0.197 0.515 0.16 0.074 0.279 0.214 0.327 0.384 0.203 0.724 0.503 1.38 0.866 1.897 0.086 0.123 0.121 0.27 0.104 0.414v1.428c0 0.325-0.258 0.591-0.583 0.6-2.886 0.081-5.159 2.364-5.242 5.229z"></path>
</symbol>
<symbol id="icon-testimonio" viewBox="0 0 32 32">
<title>testimonio</title>
<path class="path1" d="M20.59 27.877c-0.16 0-0.313-0.063-0.426-0.177l-2.998-3.019h-11.48c-0.97 0-1.758-0.789-1.758-1.76v-14.2c0-0.97 0.788-1.759 1.758-1.759h20.629c0.97 0 1.758 0.789 1.758 1.759v14.2c0 0.971-0.788 1.76-1.758 1.76h-2.301l-2.998 3.019c-0.112 0.113-0.266 0.177-0.426 0.177zM5.686 8.162c-0.308 0-0.559 0.251-0.559 0.559v14.2c0 0.309 0.251 0.561 0.559 0.561h11.73c0.16 0 0.313 0.063 0.426 0.177l2.748 2.767 2.748-2.767c0.112-0.113 0.266-0.177 0.426-0.177h2.551c0.308 0 0.559-0.252 0.559-0.561v-14.2c0-0.308-0.251-0.559-0.559-0.559h-20.629zM18.867 15.929h-0.186c-0.498 0-0.947-0.191-1.346-0.572-0.402-0.381-0.6-0.857-0.6-1.426 0-0.563 0.199-1.025 0.6-1.389 0.398-0.364 0.891-0.547 1.479-0.545 0.641-0.002 1.172 0.256 1.598 0.768 0.426 0.514 0.639 1.244 0.639 2.189 0 0.869-0.189 1.684-0.559 2.439-0.373 0.76-0.83 1.359-1.369 1.803-0.541 0.443-1.020 0.662-1.439 0.664-0.281-0.002-0.5-0.082-0.658-0.252-0.156-0.166-0.238-0.379-0.236-0.643 0-0.387 0.172-0.672 0.514-0.855 0.465-0.254 0.83-0.551 1.104-0.893s0.422-0.77 0.459-1.288zM13.055 15.929h-0.174c-0.488 0-0.934-0.191-1.332-0.572-0.398-0.383-0.6-0.857-0.6-1.428 0-0.553 0.201-1.016 0.6-1.393s0.893-0.565 1.479-0.565c0.646 0 1.184 0.262 1.605 0.789 0.42 0.526 0.631 1.257 0.631 2.194 0 0.676-0.109 1.311-0.328 1.908-0.221 0.596-0.502 1.115-0.852 1.559-0.344 0.443-0.717 0.793-1.117 1.053-0.396 0.258-0.754 0.387-1.070 0.385-0.291 0-0.51-0.078-0.664-0.24-0.152-0.162-0.23-0.379-0.23-0.654 0-0.393 0.172-0.68 0.514-0.854 0.482-0.273 0.844-0.57 1.092-0.9 0.245-0.329 0.393-0.756 0.446-1.282z"></path>
</symbol>
<symbol id="icon-titulo" viewBox="0 0 32 32">
<title>titulo</title>
<path class="path1" d="M22.392 8.327l0.041 3.754h-0.506c-0.109 0-0.172-0.074-0.195-0.223-0.020-0.149-0.043-0.339-0.068-0.568-0.027-0.229-0.066-0.474-0.113-0.731s-0.148-0.501-0.305-0.73c-0.154-0.229-0.375-0.419-0.66-0.568-0.283-0.148-0.678-0.223-1.176-0.223h-2.414v11.951c0 0.246 0.139 0.391 0.416 0.439 0.277 0.045 0.58 0.066 0.912 0.059s0.637-0.006 0.914 0c0.277 0.008 0.416 0.086 0.416 0.234v0.508h-7.285v-0.508c0-0.148 0.135-0.227 0.404-0.234 0.271-0.006 0.568-0.006 0.893 0 0.324 0.008 0.621-0.014 0.893-0.059 0.27-0.049 0.406-0.193 0.406-0.439v-11.952h-2.417c-0.484 0-0.871 0.074-1.156 0.223-0.283 0.149-0.502 0.34-0.65 0.568s-0.248 0.475-0.303 0.73c-0.053 0.258-0.090 0.502-0.113 0.732-0.020 0.229-0.043 0.419-0.069 0.568s-0.089 0.223-0.181 0.223h-0.51v-3.714c0-0.135 0.010-0.227 0.029-0.274 0.022-0.047 0.106-0.072 0.256-0.072h12.238c0.078 0 0.15 0.015 0.211 0.041 0.063 0.026 0.092 0.115 0.092 0.265zM20.154 22.728h-8.285v-1.008c0-0.118 0.043-0.71 0.89-0.734l0.441-0.004 0.596 0.006c0.245 0 0.472-0.020 0.681-0.054l-0.012-11.397h-1.917c-0.396 0-0.717 0.058-0.926 0.166-0.204 0.108-0.361 0.242-0.461 0.397-0.112 0.172-0.19 0.362-0.233 0.563-0.049 0.236-0.083 0.463-0.105 0.677-0.020 0.238-0.045 0.441-0.072 0.602-0.087 0.473-0.406 0.639-0.675 0.639h-1.010v-4.214c0-0.211 0.020-0.349 0.066-0.463 0.122-0.262 0.361-0.383 0.719-0.383h12.238c0.145 0 0.286 0.028 0.41 0.083 0.177 0.074 0.393 0.262 0.393 0.723l0.047 4.254h-1.012c-0.271 0-0.614-0.169-0.689-0.645-0.021-0.166-0.045-0.358-0.071-0.591-0.025-0.216-0.063-0.45-0.108-0.697-0.034-0.187-0.11-0.369-0.226-0.539-0.108-0.161-0.27-0.297-0.479-0.407-0.144-0.076-0.425-0.166-0.943-0.166h-1.915v11.451c0.213-0.020 0.444 0 0.695 0l0.61-0.006 0.447 0.004c0.861 0.024 0.905 0.616 0.905 0.734v1.009zM15.111 21.728h1.743c-0.23-0.168-0.358-0.425-0.358-0.74v-12.451h2.914c0.588 0 1.049 0.091 1.408 0.28 0.357 0.188 0.641 0.434 0.842 0.731 0.102 0.149 0.186 0.305 0.251 0.467l-0.017-1.493-11.828-0.001v1.54c0.067-0.177 0.152-0.345 0.256-0.505 0.195-0.301 0.477-0.549 0.837-0.739 0.363-0.189 0.817-0.28 1.39-0.28h2.916v12.451c-0.001 0.315-0.128 0.572-0.354 0.74z"></path>
</symbol>
<symbol id="icon-video" viewBox="0 0 32 32">
<title>video</title>
<path class="path1" d="M16 26.932c-6.029 0-10.934-4.904-10.934-10.931 0-6.029 4.905-10.934 10.934-10.934s10.934 4.905 10.934 10.934c-0.001 6.027-4.906 10.931-10.934 10.931zM16 6.536c-5.218 0-9.466 4.245-9.466 9.464s4.248 9.464 9.466 9.464 9.466-4.245 9.466-9.464c-0.001-5.219-4.249-9.464-9.466-9.464zM12.249 11.671l7.502 4.329-7.502 4.329z"></path>
</symbol>
</defs>
</svg>
